<svg width="26" height="25" viewBox="0 0 26 25" fill="none" xmlns="http://www.w3.org/2000/svg">
<path d="M12.9675 4.35059C8.47316 4.35059 4.81555 8.00819 4.81555 12.5025C4.81555 16.9968 8.47316 20.6544 12.9675 20.6544C17.4618 20.6544 21.1194 16.9968 21.1194 12.5025C21.1194 8.00819 17.4618 4.35059 12.9675 4.35059ZM12.9675 19.507C9.11862 19.507 5.96304 16.3753 5.96304 12.5025C5.96304 8.65365 9.09471 5.49807 12.9675 5.49807C16.8402 5.49807 19.9719 8.62975 19.9719 12.5025C19.9719 16.3514 16.8163 19.507 12.9675 19.507Z" fill="#696A75"/>
<path d="M15.3103 12.3112H13.1587V8.96437C13.1587 8.65359 12.8958 8.39062 12.585 8.39062C12.2742 8.39062 12.0112 8.65359 12.0112 8.96437V12.8849C12.0112 13.1957 12.2742 13.4587 12.585 13.4587H15.3103C15.621 13.4587 15.884 13.1957 15.884 12.8849C15.884 12.5742 15.621 12.3112 15.3103 12.3112Z" fill="#696A75"/>
</svg>
