<svg width="90" height="32" viewBox="0 0 90 32" fill="none" xmlns="http://www.w3.org/2000/svg">
<rect x="0.684204" y="0.342285" width="88.8421" height="30.7368" rx="6.55263" fill="url(#paint0_radial_422_1850)"/>
<path d="M12.8743 21.7109V10.3203H20.0909V11.6963H14.3726V15.3811H19.5558V16.7571H14.3726V21.7109H12.8743ZM25.1579 21.8944C24.3629 21.8944 23.6544 21.7058 23.0327 21.3287C22.4109 20.9516 21.9216 20.4368 21.5649 19.7845C21.2081 19.1219 21.0298 18.3829 21.0298 17.5675C21.0298 16.7419 21.203 16.008 21.5496 15.3658C21.9063 14.7236 22.3854 14.2191 22.9868 13.8521C23.5984 13.475 24.2813 13.2864 25.0356 13.2864C25.6472 13.2864 26.1874 13.3986 26.6563 13.6228C27.1354 13.8369 27.538 14.1325 27.8641 14.5096C28.2005 14.8765 28.4553 15.2996 28.6286 15.7786C28.8121 16.2475 28.9038 16.7368 28.9038 17.2464C28.9038 17.3585 28.8936 17.4859 28.8733 17.6286C28.8631 17.7612 28.8478 17.8886 28.8274 18.0109H22.0694V16.7877H28.0018L27.329 17.3381C27.4208 16.8081 27.3698 16.3341 27.1761 15.9162C26.9825 15.4983 26.6971 15.167 26.3199 14.9224C25.9428 14.6778 25.5147 14.5555 25.0356 14.5555C24.5565 14.5555 24.1182 14.6778 23.7207 14.9224C23.3232 15.167 23.0123 15.5187 22.788 15.9774C22.574 16.4259 22.4873 16.961 22.5281 17.5828C22.4873 18.1842 22.5791 18.7142 22.8033 19.1729C23.0378 19.6214 23.3639 19.973 23.7819 20.2279C24.21 20.4725 24.6737 20.5948 25.1732 20.5948C25.7236 20.5948 26.1874 20.4674 26.5645 20.2126C26.9417 19.9577 27.2475 19.6316 27.4819 19.234L28.6745 19.8456C28.5114 20.2228 28.2566 20.5693 27.91 20.8853C27.5736 21.1911 27.171 21.4357 26.7021 21.6192C26.2435 21.8027 25.7287 21.8944 25.1579 21.8944ZM33.069 21.8944C32.5288 21.8944 32.0497 21.7976 31.6318 21.6039C31.2241 21.4001 30.903 21.1248 30.6686 20.7783C30.4341 20.4215 30.3169 20.0138 30.3169 19.5551C30.3169 19.1168 30.4087 18.7244 30.5921 18.3778C30.7858 18.0211 31.0814 17.7204 31.4789 17.4758C31.8866 17.2311 32.3963 17.0578 33.0079 16.9559L36.0658 16.4514V17.6439L33.3289 18.1026C32.7989 18.1944 32.4116 18.3625 32.1669 18.6072C31.9325 18.8518 31.8153 19.1525 31.8153 19.5093C31.8153 19.8456 31.9478 20.1259 32.2128 20.3502C32.488 20.5744 32.8295 20.6865 33.2372 20.6865C33.757 20.6865 34.2055 20.5795 34.5827 20.3655C34.97 20.1412 35.2707 19.8405 35.4848 19.4634C35.709 19.0862 35.8211 18.6683 35.8211 18.2096V16.115C35.8211 15.6665 35.6529 15.3046 35.3166 15.0294C34.9904 14.744 34.5572 14.6013 34.017 14.6013C33.5481 14.6013 33.1302 14.7236 32.7632 14.9683C32.4065 15.2027 32.1415 15.5187 31.9682 15.9162L30.7297 15.2741C30.8826 14.8969 31.1273 14.5606 31.4636 14.265C31.8 13.9592 32.1924 13.7196 32.6409 13.5464C33.0894 13.3731 33.5583 13.2864 34.0475 13.2864C34.6795 13.2864 35.235 13.4088 35.7141 13.6534C36.1932 13.8878 36.5652 14.2191 36.8302 14.6472C37.1054 15.0651 37.243 15.5544 37.243 16.115V21.7109H35.8517V20.1514L36.1116 20.2431C35.9383 20.5693 35.7039 20.8547 35.4083 21.0994C35.1127 21.344 34.7662 21.5377 34.3686 21.6804C33.9711 21.8231 33.5379 21.8944 33.069 21.8944ZM42.6468 21.8027C41.8416 21.8027 41.2198 21.5733 40.7815 21.1146C40.3534 20.656 40.1393 20.0087 40.1393 19.1729V14.8307H38.641V13.4699H38.9467C39.3137 13.4699 39.6042 13.3578 39.8182 13.1335C40.0323 12.9093 40.1393 12.6137 40.1393 12.2468V11.574H41.5612V13.4699H43.4113V14.8307H41.5612V19.127C41.5612 19.4022 41.602 19.6418 41.6836 19.8456C41.7753 20.0495 41.9231 20.2126 42.127 20.3349C42.3308 20.447 42.6009 20.5031 42.9373 20.5031C43.0087 20.5031 43.0953 20.498 43.1972 20.4878C43.3093 20.4776 43.4113 20.4674 43.503 20.4572V21.7109C43.3705 21.7415 43.2227 21.7619 43.0596 21.7721C42.8965 21.7925 42.7589 21.8027 42.6468 21.8027ZM48.2807 21.8944C47.6895 21.8944 47.1544 21.7568 46.6753 21.4816C46.2065 21.2064 45.8395 20.8241 45.5745 20.3349C45.3197 19.8354 45.1923 19.2646 45.1923 18.6225V13.4699H46.6142V18.4696C46.6142 18.8773 46.6957 19.234 46.8588 19.5398C47.0321 19.8456 47.2665 20.0852 47.5621 20.2584C47.8679 20.4317 48.2145 20.5184 48.6018 20.5184C48.9891 20.5184 49.3306 20.4317 49.6262 20.2584C49.932 20.0852 50.1664 19.8354 50.3295 19.5093C50.5028 19.1831 50.5894 18.7957 50.5894 18.3473V13.4699H52.0267V21.7109H50.6353V20.1055L50.8647 20.2431C50.671 20.763 50.3397 21.1707 49.8708 21.4663C49.4122 21.7517 48.8821 21.8944 48.2807 21.8944ZM54.2295 21.7109V13.4699H55.6209V14.9836L55.468 14.7695C55.6616 14.3006 55.9572 13.9541 56.3548 13.7298C56.7523 13.4954 57.2365 13.3782 57.8073 13.3782H58.3118V14.7236H57.5932C57.0122 14.7236 56.5433 14.9071 56.1866 15.2741C55.8298 15.6308 55.6515 16.1405 55.6515 16.803V21.7109H54.2295ZM63.3667 21.8944C62.5716 21.8944 61.8632 21.7058 61.2414 21.3287C60.6197 20.9516 60.1304 20.4368 59.7736 19.7845C59.4169 19.1219 59.2385 18.3829 59.2385 17.5675C59.2385 16.7419 59.4118 16.008 59.7584 15.3658C60.1151 14.7236 60.5942 14.2191 61.1956 13.8521C61.8071 13.475 62.4901 13.2864 63.2444 13.2864C63.8559 13.2864 64.3962 13.3986 64.865 13.6228C65.3441 13.8369 65.7467 14.1325 66.0729 14.5096C66.4093 14.8765 66.6641 15.2996 66.8374 15.7786C67.0209 16.2475 67.1126 16.7368 67.1126 17.2464C67.1126 17.3585 67.1024 17.4859 67.082 17.6286C67.0718 17.7612 67.0565 17.8886 67.0361 18.0109H60.2782V16.7877H66.2105L65.5378 17.3381C65.6295 16.8081 65.5785 16.3341 65.3849 15.9162C65.1912 15.4983 64.9058 15.167 64.5287 14.9224C64.1515 14.6778 63.7234 14.5555 63.2444 14.5555C62.7653 14.5555 62.327 14.6778 61.9295 14.9224C61.5319 15.167 61.221 15.5187 60.9968 15.9774C60.7827 16.4259 60.6961 16.961 60.7369 17.5828C60.6961 18.1842 60.7878 18.7142 61.0121 19.1729C61.2465 19.6214 61.5727 19.973 61.9906 20.2279C62.4187 20.4725 62.8825 20.5948 63.382 20.5948C63.9324 20.5948 64.3962 20.4674 64.7733 20.2126C65.1504 19.9577 65.4562 19.6316 65.6907 19.234L66.8832 19.8456C66.7202 20.2228 66.4653 20.5693 66.1188 20.8853C65.7824 21.1911 65.3798 21.4357 64.9109 21.6192C64.4522 21.8027 63.9375 21.8944 63.3667 21.8944ZM72.7125 21.8944C71.9378 21.8944 71.2396 21.7058 70.6178 21.3287C70.0062 20.9516 69.5221 20.4368 69.1653 19.7845C68.8086 19.1321 68.6302 18.4033 68.6302 17.5981C68.6302 16.7724 68.8086 16.0385 69.1653 15.3964C69.5221 14.744 70.0062 14.2293 70.6178 13.8521C71.2396 13.475 71.9378 13.2864 72.7125 13.2864C73.3954 13.2864 74.0019 13.4342 74.5319 13.7298C75.062 14.0152 75.4799 14.4026 75.7857 14.8918L75.5563 15.2435V10.1368H76.9935V21.7109H75.6022V19.9526L75.7857 20.1973C75.5003 20.7375 75.0823 21.1554 74.5319 21.451C73.9917 21.7466 73.3852 21.8944 72.7125 21.8944ZM72.8348 20.5184C73.3546 20.5184 73.8184 20.3909 74.2261 20.1361C74.6339 19.8813 74.9549 19.5347 75.1894 19.0964C75.434 18.6479 75.5563 18.1485 75.5563 17.5981C75.5563 17.0375 75.434 16.538 75.1894 16.0997C74.9549 15.6512 74.6339 15.2996 74.2261 15.0447C73.8184 14.7899 73.3546 14.6625 72.8348 14.6625C72.3251 14.6625 71.8614 14.795 71.4435 15.06C71.0357 15.3148 70.7147 15.6614 70.4802 16.0997C70.2458 16.5278 70.1286 17.0273 70.1286 17.5981C70.1286 18.1485 70.2458 18.6479 70.4802 19.0964C70.7147 19.5347 71.0357 19.8813 71.4435 20.1361C71.8512 20.3909 72.315 20.5184 72.8348 20.5184Z" fill="#0F0F0F"/>
<defs>
<radialGradient id="paint0_radial_422_1850" cx="0" cy="0" r="1" gradientUnits="userSpaceOnUse" gradientTransform="translate(40.3269 5.62617) rotate(23.8075) scale(43.5818 30.9183)">
<stop stop-color="#85EAFF"/>
<stop offset="0.706211" stop-color="#DADADA"/>
<stop offset="1" stop-color="#FFCB80"/>
</radialGradient>
</defs>
</svg>
