<svg width="40" height="40" viewBox="0 0 40 40" fill="none" xmlns="http://www.w3.org/2000/svg">
<path d="M17.2357 5.38721C14.8631 5.38721 12.5438 6.09076 10.5711 7.4089C8.59832 8.72705 7.06076 10.6006 6.1528 12.7926C5.24485 14.9846 5.00729 17.3966 5.47016 19.7236C5.93303 22.0506 7.07554 24.1881 8.75322 25.8657C10.4309 27.5434 12.5684 28.6859 14.8954 29.1488C17.2224 29.6117 19.6344 29.3741 21.8264 28.4661C24.0184 27.5582 25.8919 26.0206 27.21 24.0479C28.5282 22.0752 29.2317 19.7558 29.2317 17.3832C29.2315 14.2018 27.9676 11.1506 25.718 8.90099C23.4683 6.65134 20.4172 5.38741 17.2357 5.38721Z" stroke="#52525B" stroke-width="3.66548" stroke-miterlimit="10"/>
<path d="M26.1856 26.334L34.5635 34.7119" stroke="#52525B" stroke-width="3.66548" stroke-miterlimit="10" stroke-linecap="round"/>
</svg>
