<svg width="60" height="37" viewBox="0 0 60 37" fill="none" xmlns="http://www.w3.org/2000/svg">
<rect width="60" height="35" rx="17.5" fill="#4B6BFB"/>
<g filter="url(#filter0_d_422_2106)">
<rect x="27.5" y="2.5" width="30" height="30" rx="15" fill="white" shape-rendering="crispEdges"/>
<path d="M42.5 12.7832C42.3006 12.7832 42.1093 12.704 41.9683 12.563C41.8273 12.4219 41.748 12.2307 41.748 12.0312V10.3906C41.748 10.1912 41.8273 9.99993 41.9683 9.85891C42.1093 9.7179 42.3006 9.63867 42.5 9.63867C42.6994 9.63867 42.8907 9.7179 43.0317 9.85891C43.1727 9.99993 43.252 10.1912 43.252 10.3906V12.0312C43.252 12.2307 43.1727 12.4219 43.0317 12.563C42.8907 12.704 42.6994 12.7832 42.5 12.7832ZM42.5 25.3613C42.3006 25.3613 42.1093 25.2821 41.9683 25.1411C41.8273 25.0001 41.748 24.8088 41.748 24.6094V22.9688C41.748 22.7693 41.8273 22.5781 41.9683 22.437C42.1093 22.296 42.3006 22.2168 42.5 22.2168C42.6994 22.2168 42.8907 22.296 43.0317 22.437C43.1727 22.5781 43.252 22.7693 43.252 22.9688V24.6094C43.252 24.8088 43.1727 25.0001 43.0317 25.1411C42.8907 25.2821 42.6994 25.3613 42.5 25.3613ZM46.3671 14.3849C46.2184 14.3848 46.0731 14.3407 45.9494 14.2581C45.8258 14.1755 45.7294 14.0581 45.6725 13.9208C45.6156 13.7834 45.6007 13.6323 45.6296 13.4864C45.6586 13.3406 45.7302 13.2066 45.8353 13.1014L46.9953 11.9414C47.1369 11.8034 47.3272 11.7268 47.5249 11.7281C47.7226 11.7294 47.9119 11.8085 48.0517 11.9483C48.1915 12.0881 48.2706 12.2774 48.2719 12.4751C48.2732 12.6728 48.1966 12.8631 48.0586 13.0047L46.8986 14.1647C46.8289 14.2346 46.746 14.29 46.6548 14.3278C46.5636 14.3656 46.4658 14.385 46.3671 14.3849ZM37.4729 23.2791C37.3241 23.2791 37.1787 23.235 37.0551 23.1523C36.9314 23.0697 36.8351 22.9522 36.7782 22.8148C36.7213 22.6774 36.7064 22.5262 36.7355 22.3803C36.7645 22.2344 36.8362 22.1005 36.9414 21.9953L38.1014 20.8353C38.1709 20.7639 38.2539 20.7071 38.3455 20.6681C38.4371 20.6291 38.5356 20.6086 38.6351 20.608C38.7347 20.6073 38.8334 20.6265 38.9256 20.6643C39.0177 20.7021 39.1014 20.7578 39.1718 20.8282C39.2422 20.8986 39.2979 20.9823 39.3357 21.0744C39.3735 21.1666 39.3927 21.2653 39.392 21.3649C39.3914 21.4644 39.3709 21.5629 39.3319 21.6545C39.2929 21.7461 39.2361 21.8291 39.1647 21.8986L38.0047 23.0586C37.9349 23.1286 37.852 23.1841 37.7608 23.2219C37.6695 23.2598 37.5717 23.2792 37.4729 23.2791ZM49.6094 18.252H47.9688C47.7693 18.252 47.5781 18.1727 47.437 18.0317C47.296 17.8907 47.2168 17.6994 47.2168 17.5C47.2168 17.3006 47.296 17.1093 47.437 16.9683C47.5781 16.8273 47.7693 16.748 47.9688 16.748H49.6094C49.8088 16.748 50.0001 16.8273 50.1411 16.9683C50.2821 17.1093 50.3613 17.3006 50.3613 17.5C50.3613 17.6994 50.2821 17.8907 50.1411 18.0317C50.0001 18.1727 49.8088 18.252 49.6094 18.252ZM37.0312 18.252H35.3906C35.1912 18.252 34.9999 18.1727 34.8589 18.0317C34.7179 17.8907 34.6387 17.6994 34.6387 17.5C34.6387 17.3006 34.7179 17.1093 34.8589 16.9683C34.9999 16.8273 35.1912 16.748 35.3906 16.748H37.0312C37.2307 16.748 37.4219 16.8273 37.563 16.9683C37.704 17.1093 37.7832 17.3006 37.7832 17.5C37.7832 17.6994 37.704 17.8907 37.563 18.0317C37.4219 18.1727 37.2307 18.252 37.0312 18.252ZM47.5271 23.2791C47.4283 23.2792 47.3305 23.2598 47.2392 23.2219C47.148 23.1841 47.0651 23.1286 46.9953 23.0586L45.8353 21.8986C45.6973 21.7569 45.6207 21.5667 45.622 21.369C45.6233 21.1713 45.7024 20.982 45.8422 20.8422C45.982 20.7024 46.1713 20.6233 46.369 20.622C46.5667 20.6207 46.7569 20.6973 46.8986 20.8353L48.0586 21.9953C48.1638 22.1005 48.2355 22.2344 48.2645 22.3803C48.2936 22.5262 48.2787 22.6774 48.2218 22.8148C48.1649 22.9522 48.0686 23.0697 47.9449 23.1523C47.8213 23.235 47.6759 23.2791 47.5271 23.2791ZM38.6329 14.3849C38.5342 14.3851 38.4364 14.3657 38.3452 14.3279C38.2539 14.2901 38.1711 14.2347 38.1014 14.1647L36.9414 13.0047C36.8034 12.8631 36.7268 12.6728 36.7281 12.4751C36.7294 12.2774 36.8085 12.0881 36.9483 11.9483C37.0881 11.8085 37.2774 11.7294 37.4751 11.7281C37.6728 11.7268 37.8631 11.8034 38.0047 11.9414L39.1647 13.1014C39.2698 13.2066 39.3414 13.3406 39.3704 13.4864C39.3993 13.6323 39.3844 13.7834 39.3275 13.9208C39.2706 14.0581 39.1742 14.1755 39.0506 14.2581C38.9269 14.3407 38.7816 14.3848 38.6329 14.3849ZM42.5 20.9863C41.8105 20.9863 41.1364 20.7819 40.5631 20.3988C39.9898 20.0157 39.5429 19.4712 39.2791 18.8342C39.0152 18.1971 38.9461 17.4961 39.0807 16.8199C39.2152 16.1436 39.5472 15.5224 40.0348 15.0348C40.5224 14.5472 41.1436 14.2152 41.8199 14.0807C42.4961 13.9461 43.1971 14.0152 43.8342 14.2791C44.4712 14.5429 45.0157 14.9898 45.3988 15.5631C45.7819 16.1364 45.9863 16.8105 45.9863 17.5C45.9852 18.4243 45.6176 19.3104 44.964 19.964C44.3104 20.6176 43.4243 20.9852 42.5 20.9863Z" fill="#52535F"/>
</g>
<defs>
<filter id="filter0_d_422_2106" x="25" y="1.25" width="35" height="35" filterUnits="userSpaceOnUse" color-interpolation-filters="sRGB">
<feFlood flood-opacity="0" result="BackgroundImageFix"/>
<feColorMatrix in="SourceAlpha" type="matrix" values="0 0 0 0 0 0 0 0 0 0 0 0 0 0 0 0 0 0 127 0" result="hardAlpha"/>
<feOffset dy="1.25"/>
<feGaussianBlur stdDeviation="1.25"/>
<feComposite in2="hardAlpha" operator="out"/>
<feColorMatrix type="matrix" values="0 0 0 0 0 0 0 0 0 0 0 0 0 0 0 0 0 0 0.12 0"/>
<feBlend mode="normal" in2="BackgroundImageFix" result="effect1_dropShadow_422_2106"/>
<feBlend mode="normal" in="SourceGraphic" in2="effect1_dropShadow_422_2106" result="shape"/>
</filter>
</defs>
</svg>
