<svg width="61" height="37" viewBox="0 0 61 37" fill="none" xmlns="http://www.w3.org/2000/svg">
<rect x="1" width="60" height="35" rx="17.5" fill="#A0A0A0"/>
<g filter="url(#filter0_d_593_1991)">
<rect x="3" y="2.5" width="30" height="30" rx="15" fill="white" shape-rendering="crispEdges"/>
<path d="M18 12.7832C17.8006 12.7832 17.6093 12.704 17.4683 12.563C17.3273 12.4219 17.248 12.2307 17.248 12.0312V10.3906C17.248 10.1912 17.3273 9.99993 17.4683 9.85891C17.6093 9.7179 17.8006 9.63867 18 9.63867C18.1994 9.63867 18.3907 9.7179 18.5317 9.85891C18.6727 9.99993 18.752 10.1912 18.752 10.3906V12.0312C18.752 12.2307 18.6727 12.4219 18.5317 12.563C18.3907 12.704 18.1994 12.7832 18 12.7832ZM18 25.3613C17.8006 25.3613 17.6093 25.2821 17.4683 25.1411C17.3273 25.0001 17.248 24.8088 17.248 24.6094V22.9688C17.248 22.7693 17.3273 22.5781 17.4683 22.437C17.6093 22.296 17.8006 22.2168 18 22.2168C18.1994 22.2168 18.3907 22.296 18.5317 22.437C18.6727 22.5781 18.752 22.7693 18.752 22.9688V24.6094C18.752 24.8088 18.6727 25.0001 18.5317 25.1411C18.3907 25.2821 18.1994 25.3613 18 25.3613ZM21.8671 14.3849C21.7184 14.3848 21.5731 14.3407 21.4494 14.2581C21.3258 14.1755 21.2294 14.0581 21.1725 13.9208C21.1156 13.7834 21.1007 13.6323 21.1296 13.4864C21.1586 13.3406 21.2302 13.2066 21.3353 13.1014L22.4953 11.9414C22.6369 11.8034 22.8272 11.7268 23.0249 11.7281C23.2226 11.7294 23.4119 11.8085 23.5517 11.9483C23.6915 12.0881 23.7706 12.2774 23.7719 12.4751C23.7732 12.6728 23.6966 12.8631 23.5586 13.0047L22.3986 14.1647C22.3289 14.2346 22.246 14.29 22.1548 14.3278C22.0636 14.3656 21.9658 14.385 21.8671 14.3849ZM12.9729 23.2791C12.8241 23.2791 12.6787 23.235 12.5551 23.1523C12.4314 23.0697 12.3351 22.9522 12.2782 22.8148C12.2213 22.6774 12.2064 22.5262 12.2355 22.3803C12.2645 22.2344 12.3362 22.1005 12.4414 21.9953L13.6014 20.8353C13.6709 20.7639 13.7539 20.7071 13.8455 20.6681C13.9371 20.6291 14.0356 20.6086 14.1351 20.608C14.2347 20.6073 14.3334 20.6265 14.4256 20.6643C14.5177 20.7021 14.6014 20.7578 14.6718 20.8282C14.7422 20.8986 14.7979 20.9823 14.8357 21.0744C14.8735 21.1666 14.8927 21.2653 14.892 21.3649C14.8914 21.4644 14.8709 21.5629 14.8319 21.6545C14.7929 21.7461 14.7361 21.8291 14.6647 21.8986L13.5047 23.0586C13.4349 23.1286 13.352 23.1841 13.2608 23.2219C13.1695 23.2598 13.0717 23.2792 12.9729 23.2791ZM25.1094 18.252H23.4688C23.2693 18.252 23.0781 18.1727 22.937 18.0317C22.796 17.8907 22.7168 17.6994 22.7168 17.5C22.7168 17.3006 22.796 17.1093 22.937 16.9683C23.0781 16.8273 23.2693 16.748 23.4688 16.748H25.1094C25.3088 16.748 25.5001 16.8273 25.6411 16.9683C25.7821 17.1093 25.8613 17.3006 25.8613 17.5C25.8613 17.6994 25.7821 17.8907 25.6411 18.0317C25.5001 18.1727 25.3088 18.252 25.1094 18.252ZM12.5312 18.252H10.8906C10.6912 18.252 10.4999 18.1727 10.3589 18.0317C10.2179 17.8907 10.1387 17.6994 10.1387 17.5C10.1387 17.3006 10.2179 17.1093 10.3589 16.9683C10.4999 16.8273 10.6912 16.748 10.8906 16.748H12.5312C12.7307 16.748 12.9219 16.8273 13.063 16.9683C13.204 17.1093 13.2832 17.3006 13.2832 17.5C13.2832 17.6994 13.204 17.8907 13.063 18.0317C12.9219 18.1727 12.7307 18.252 12.5312 18.252ZM23.0271 23.2791C22.9283 23.2792 22.8305 23.2598 22.7392 23.2219C22.648 23.1841 22.5651 23.1286 22.4953 23.0586L21.3353 21.8986C21.1973 21.7569 21.1207 21.5667 21.122 21.369C21.1233 21.1713 21.2024 20.982 21.3422 20.8422C21.482 20.7024 21.6713 20.6233 21.869 20.622C22.0667 20.6207 22.2569 20.6973 22.3986 20.8353L23.5586 21.9953C23.6638 22.1005 23.7355 22.2344 23.7645 22.3803C23.7936 22.5262 23.7787 22.6774 23.7218 22.8148C23.6649 22.9522 23.5686 23.0697 23.4449 23.1523C23.3213 23.235 23.1759 23.2791 23.0271 23.2791ZM14.1329 14.3849C14.0342 14.3851 13.9364 14.3657 13.8452 14.3279C13.7539 14.2901 13.6711 14.2347 13.6014 14.1647L12.4414 13.0047C12.3034 12.8631 12.2268 12.6728 12.2281 12.4751C12.2294 12.2774 12.3085 12.0881 12.4483 11.9483C12.5881 11.8085 12.7774 11.7294 12.9751 11.7281C13.1728 11.7268 13.3631 11.8034 13.5047 11.9414L14.6647 13.1014C14.7698 13.2066 14.8414 13.3406 14.8704 13.4864C14.8993 13.6323 14.8844 13.7834 14.8275 13.9208C14.7706 14.0581 14.6742 14.1755 14.5506 14.2581C14.4269 14.3407 14.2816 14.3848 14.1329 14.3849ZM18 20.9863C17.3105 20.9863 16.6364 20.7819 16.0631 20.3988C15.4898 20.0157 15.0429 19.4712 14.7791 18.8342C14.5152 18.1971 14.4461 17.4961 14.5807 16.8199C14.7152 16.1436 15.0472 15.5224 15.5348 15.0348C16.0224 14.5472 16.6436 14.2152 17.3199 14.0807C17.9961 13.9461 18.6971 14.0152 19.3342 14.2791C19.9712 14.5429 20.5157 14.9898 20.8988 15.5631C21.2819 16.1364 21.4863 16.8105 21.4863 17.5C21.4852 18.4243 21.1176 19.3104 20.464 19.964C19.8104 20.6176 18.9243 20.9852 18 20.9863Z" fill="#52535F"/>
</g>
<defs>
<filter id="filter0_d_593_1991" x="0.5" y="1.25" width="35" height="35" filterUnits="userSpaceOnUse" color-interpolation-filters="sRGB">
<feFlood flood-opacity="0" result="BackgroundImageFix"/>
<feColorMatrix in="SourceAlpha" type="matrix" values="0 0 0 0 0 0 0 0 0 0 0 0 0 0 0 0 0 0 127 0" result="hardAlpha"/>
<feOffset dy="1.25"/>
<feGaussianBlur stdDeviation="1.25"/>
<feComposite in2="hardAlpha" operator="out"/>
<feColorMatrix type="matrix" values="0 0 0 0 0 0 0 0 0 0 0 0 0 0 0 0 0 0 0.12 0"/>
<feBlend mode="normal" in2="BackgroundImageFix" result="effect1_dropShadow_593_1991"/>
<feBlend mode="normal" in="SourceGraphic" in2="effect1_dropShadow_593_1991" result="shape"/>
</filter>
</defs>
</svg>
