<svg width="33" height="33" viewBox="0 0 33 33" fill="none" xmlns="http://www.w3.org/2000/svg">
<g clip-path="url(#clip0_1_555)">
<path fill-rule="evenodd" clip-rule="evenodd" d="M25.1169 17.4381C25.0781 13.3721 28.4391 11.4125 28.5908 11.3196C26.7034 8.55277 23.7589 8.174 22.7103 8.12973C20.2071 7.87838 17.825 9.60546 16.5541 9.60546C15.2867 9.60546 13.3242 8.16802 11.2498 8.20889C8.51839 8.24687 6.00233 9.79457 4.59603 12.2377C1.76203 17.1585 3.87162 24.4461 6.63532 28.4381C7.98419 30.3874 9.59644 32.5864 11.7105 32.507C13.7499 32.427 14.5177 31.1918 16.9772 31.1918C19.4387 31.1918 20.13 32.507 22.287 32.4664C24.4753 32.427 25.8668 30.4754 27.2073 28.5181C28.757 26.2509 29.3952 24.0562 29.4323 23.9422C29.3852 23.9251 25.1612 22.3034 25.1169 17.4381Z" fill="white"/>
<path fill-rule="evenodd" clip-rule="evenodd" d="M21.0721 5.49245C22.1956 4.13072 22.9494 2.24111 22.7429 0.356934C21.1258 0.421177 19.1651 1.43638 18.0067 2.79386C16.9655 3.99847 16.0543 5.92205 16.3014 7.76678C18.1053 7.90704 19.9481 6.85156 21.0721 5.49245Z" fill="white"/>
</g>
<defs>
<clipPath id="clip0_1_555">
<rect width="32.1531" height="32.1531" fill="white" transform="translate(0.264404 0.357544)"/>
</clipPath>
</defs>
</svg>
