<svg width="12" height="12" viewBox="0 0 12 12" fill="none" xmlns="http://www.w3.org/2000/svg">
<path d="M11.25 0.75852C11.1729 0.681267 11.0813 0.619977 10.9805 0.578159C10.8797 0.536341 10.7716 0.514816 10.6625 0.514816C10.5534 0.514816 10.4453 0.536341 10.3445 0.578159C10.2437 0.619977 10.1521 0.681267 10.075 0.75852L6 4.82519L1.925 0.750186C1.84785 0.673035 1.75626 0.611835 1.65546 0.57008C1.55465 0.528326 1.44661 0.506836 1.3375 0.506836C1.22839 0.506836 1.12035 0.528326 1.01955 0.57008C0.918747 0.611835 0.827155 0.673035 0.750003 0.750186C0.672851 0.827338 0.611651 0.91893 0.569897 1.01973C0.528143 1.12054 0.506653 1.22858 0.506653 1.33769C0.506653 1.4468 0.528143 1.55484 0.569897 1.65564C0.611651 1.75644 0.672851 1.84803 0.750003 1.92519L4.825 6.00019L0.750003 10.0752C0.672851 10.1523 0.611651 10.2439 0.569897 10.3447C0.528143 10.4455 0.506653 10.5536 0.506653 10.6627C0.506653 10.7718 0.528143 10.8798 0.569897 10.9806C0.611651 11.0814 0.672851 11.173 0.750003 11.2502C0.827155 11.3273 0.918747 11.3885 1.01955 11.4303C1.12035 11.472 1.22839 11.4935 1.3375 11.4935C1.44661 11.4935 1.55465 11.472 1.65546 11.4303C1.75626 11.3885 1.84785 11.3273 1.925 11.2502L6 7.17518L10.075 11.2502C10.1522 11.3273 10.2437 11.3885 10.3445 11.4303C10.4454 11.472 10.5534 11.4935 10.6625 11.4935C10.7716 11.4935 10.8797 11.472 10.9805 11.4303C11.0813 11.3885 11.1728 11.3273 11.25 11.2502C11.3272 11.173 11.3884 11.0814 11.4301 10.9806C11.4719 10.8798 11.4934 10.7718 11.4934 10.6627C11.4934 10.5536 11.4719 10.4455 11.4301 10.3447C11.3884 10.2439 11.3272 10.1523 11.25 10.0752L7.175 6.00019L11.25 1.92519C11.5667 1.60852 11.5667 1.07519 11.25 0.75852Z" fill="#797979"/>
</svg>
