<svg width="251" height="40" viewBox="0 0 251 40" fill="none" xmlns="http://www.w3.org/2000/svg">
<mask id="mask0_1_113" style="mask-type:luminance" maskUnits="userSpaceOnUse" x="0" y="0" width="251" height="40">
<path fill-rule="evenodd" clip-rule="evenodd" d="M0 31.7659C4.33258 29.7004 12.6017 24.9856 21.413 20.8881C30.2218 16.7908 39.5961 13.212 49.6667 10.3773C59.7346 7.54227 70.5042 5.4535 79.241 4.59614C87.978 3.73662 93.616 3.95075 98.1231 4.67637C102.628 5.39928 105.984 6.59708 108.201 8.1722C110.419 9.74976 111.622 11.6577 112.007 13.4521C112.395 15.2492 112.341 16.5736 112.005 17.9268C111.67 19.2745 111.033 20.6688 110.072 22.1067C109.114 23.545 107.819 25.0271 105.937 26.7052C104.057 28.3833 101.823 30.0696 99.67 31.4379C97.5116 32.8037 95.435 33.8622 93.4411 34.6112C91.4445 35.3598 89.5352 35.8041 88.4998 35.7111C87.4692 35.6154 86.9168 35.1094 86.8189 34.6627C86.7214 34.216 87.0041 33.3228 88.001 31.9206C88.9955 30.516 90.7609 28.7425 92.7293 27.1907C94.7002 25.6364 96.6968 24.5159 99.1046 23.501C101.515 22.4838 104.339 21.5801 107.567 20.7926C110.799 20.0077 114.435 19.3441 117.506 18.9207C120.579 18.5 122.998 18.2675 125.678 18.0867C128.358 17.9086 131.3 17.7796 134.499 17.7072C137.701 17.6297 141.162 17.6118 148.633 17.795C156.105 17.981 167.463 18.3062 178.824 18.5876C190.184 18.8741 201.55 19.1118 212.918 19.0964C224.287 19.0809 235.66 18.7399 244.19 18.3087C252.723 17.8777 252.723 17.8777 247.039 17.8183C247.039 17.8183 235.685 16.6487 224.333 16.0754C212.98 15.5049 201.625 15.1899 190.272 14.9367C178.919 14.6838 167.569 14.3867 156.213 14.046C144.858 13.7053 141.157 13.6871 137.742 13.7283C134.322 13.7647 131.159 13.8576 128.245 14.0073C125.328 14.1572 122.664 14.361 120.24 14.6166C117.82 14.8801 113.803 15.4737 110.159 16.2072C106.513 16.9404 103.247 17.8132 100.351 18.8305C97.455 19.8477 94.9317 21.0173 92.7654 22.3626C90.5964 23.7076 88.1116 25.8636 86.3335 27.8336C84.5551 29.801 83.4554 31.6935 83.1933 33.6687C82.9336 35.6439 83.792 37.464 85.6808 38.7087C87.5695 39.9556 90.247 39.6639 92.5109 39.0261C94.7775 38.3832 97.072 37.4204 99.4003 36.1397C101.726 34.8589 104.09 33.2659 106.5 31.3528C108.91 29.4396 110.65 27.7276 112.038 26.0005C113.428 24.2757 114.484 22.5019 115.188 20.6815C115.89 18.8641 116.224 17.0024 116.16 15.0866C116.093 13.1708 115.186 10.0544 113.012 7.46203C110.835 4.8672 107.585 3.01858 103.352 1.82837C99.1201 0.635445 93.9011 0.0391197 87.6131 0.000358582C81.3251 -0.0356941 69.8618 1.58577 59.1206 3.9662C48.3794 6.35205 38.3216 9.50716 28.9988 13.5297C19.6761 17.5473 11.1651 22.5122 7.45218 25.6725C-0.0824034 31.6547 3.8211 28.9439 0 31.7659Z" fill="white"/>
</mask>
<g mask="url(#mask0_1_113)">
<mask id="mask1_1_113" style="mask-type:luminance" maskUnits="userSpaceOnUse" x="-57" y="-452" width="814" height="544">
<path d="M-56.3821 91.0752H756.791V-451.04H-56.3821V91.0752Z" fill="white"/>
</mask>
<g mask="url(#mask1_1_113)">
<path d="M-0.356812 40.2266H252.99V-0.307114H-0.356812V40.2266Z" fill="#FFE766"/>
</g>
</g>
</svg>
