<svg width="304" height="60" viewBox="0 0 304 60" fill="none" xmlns="http://www.w3.org/2000/svg">
<path opacity="0.8" d="M156.07 29.1413C153.567 29.1413 151.762 29.9621 149.933 30.7984V49.7208C151.685 49.8878 152.69 49.8878 154.352 49.8878C160.361 49.8878 161.184 47.1362 161.184 43.2945V34.2571C161.184 31.42 160.243 29.1413 156.07 29.1413ZM116.168 28.1086C111.999 28.1086 111.048 30.3971 111.048 33.2314V34.8239H121.282V33.2314C121.282 30.3971 120.331 28.1086 116.168 28.1086ZM38.8705 47.8041C38.8705 50.0463 39.9284 51.2109 42.2632 51.2109C44.7678 51.2109 46.2509 50.3943 48.0791 49.5552V45.0667H42.6028C40.0098 45.0667 38.8705 45.5493 38.8705 47.8041ZM194.884 29.1413C190.709 29.1413 189.262 31.42 189.262 34.2571V44.6106C189.262 47.4548 190.709 49.7404 194.884 49.7404C199.049 49.7404 200.507 47.4548 200.507 44.6106V34.2571C200.505 31.42 199.047 29.1413 194.884 29.1413ZM18.4075 59.4135H6.13301V29.7039H0V19.4668H6.13442V13.3184C6.13442 4.96562 9.5959 0 19.4345 0H27.6259V10.2399H22.506C18.6755 10.2399 18.4229 11.6711 18.4229 14.3412L18.4075 19.4654H27.6821L26.5974 29.7025H18.4075V59.4135ZM60.3564 59.4907H50.1263L49.6843 56.9033C45.0133 59.4907 40.8447 59.9102 38.0946 59.9102C30.5921 59.9102 26.5989 54.8983 26.5989 47.9669C26.5989 39.7895 31.2586 36.8711 39.5945 36.8711H48.0791V35.1031C48.0791 30.9289 47.6007 29.7039 41.1814 29.7039H30.6861L31.7118 19.4668H43.1837C57.2681 19.4668 60.3564 23.9161 60.3564 35.1859V59.4907ZM95.1438 30.4546C88.7779 29.363 86.9496 29.1231 83.8866 29.1231C78.385 29.1231 76.7223 30.3368 76.7223 35.0091V43.8473C76.7223 48.5197 78.385 49.739 83.8866 49.739C86.9496 49.739 88.7779 49.4949 95.1438 48.399V58.385C89.5678 59.6352 85.9352 59.9635 82.8652 59.9635C69.6871 59.9635 64.4493 53.0335 64.4493 43.0223V35.851C64.4493 25.8314 69.6871 18.8887 82.8652 18.8887C85.9352 18.8887 89.5678 19.2185 95.1438 20.4743V30.4546ZM133.555 43.0223H111.047V43.8473C111.047 48.5197 112.711 49.739 118.211 49.739C123.156 49.739 126.174 49.4949 132.528 48.399V58.385C126.4 59.6352 123.206 59.9635 117.194 59.9635C104.014 59.9635 98.7737 53.0335 98.7737 43.0223V34.8225C98.7737 26.0629 102.662 18.8887 116.167 18.8887C129.672 18.8887 133.555 25.9801 133.555 34.8225V43.0223ZM173.456 43.2117C173.456 52.8876 170.69 59.9453 153.937 59.9453C147.887 59.9453 144.338 59.4135 137.661 58.3864V3.07563L149.931 1.02849V20.376C152.583 19.391 156.015 18.8901 159.138 18.8901C171.41 18.8901 173.454 24.3918 173.454 33.2328V43.2117H173.456ZM212.789 43.4222C212.789 51.7693 209.343 59.8653 194.925 59.8653C180.5 59.8653 176.989 51.7693 176.989 43.4222V35.3627C176.989 27.0114 180.5 18.914 194.925 18.914C209.343 18.914 212.789 27.0114 212.789 35.3627V43.4222ZM252.096 43.4222C252.096 51.7693 248.646 59.8653 234.23 59.8653C219.805 59.8653 216.294 51.7693 216.294 43.4222V35.3627C216.294 27.0114 219.805 18.914 234.23 18.914C248.646 18.914 252.096 27.0114 252.096 35.3627V43.4222ZM292.434 59.4135H279.134L267.886 40.6356V59.4135H255.611V3.07422L267.886 1.02708V37.2962L279.134 19.4668H292.434L280.154 38.9238L292.434 59.4135ZM234.188 29.1413C230.02 29.1413 228.573 31.42 228.573 34.2571V44.6106C228.573 47.4548 230.02 49.7404 234.188 49.7404C238.351 49.7404 239.825 47.4548 239.825 44.6106V34.2571C239.825 31.42 238.351 29.1413 234.188 29.1413ZM299.44 52.4063C301.507 52.4063 303.153 54.0915 303.153 56.1962C303.153 58.3331 301.506 60 299.425 60C297.354 60 295.674 58.3331 295.674 56.1962C295.674 54.0915 297.354 52.4063 299.425 52.4063H299.44ZM299.425 52.9957C297.759 52.9957 296.397 54.4282 296.397 56.1962C296.397 57.9964 297.761 59.4107 299.44 59.4107C301.121 59.4275 302.464 57.9964 302.464 56.213C302.464 54.4296 301.121 52.9957 299.44 52.9957H299.425ZM298.719 58.4019H298.045V54.1729C298.399 54.1238 298.736 54.0746 299.241 54.0746C299.881 54.0746 300.299 54.2094 300.556 54.3932C300.804 54.5798 300.937 54.8646 300.937 55.2673C300.937 55.8257 300.57 56.1611 300.116 56.2972V56.3295C300.486 56.3982 300.737 56.7322 300.822 57.3537C300.92 58.0118 301.023 58.2629 301.089 58.4005H300.383C300.283 58.2629 300.181 57.8771 300.097 57.3201C299.999 56.7827 299.726 56.5806 299.188 56.5806H298.72V58.4019H298.719ZM298.719 56.0615H299.207C299.76 56.0615 300.23 55.858 300.23 55.3346C300.23 54.9642 299.964 54.5952 299.207 54.5952C298.987 54.5952 298.834 54.612 298.719 54.6275V56.0615Z" fill="white"/>
</svg>
