<svg width="132" height="60" viewBox="0 0 132 60" fill="none" xmlns="http://www.w3.org/2000/svg">
<g clip-path="url(#clip0_1_450)">
<path d="M6.81538 43.811L6.25449 45.194C6.04703 45.0865 5.81653 45.0557 5.51688 45.0557C4.71012 45.0557 4.08007 45.5321 4.08007 46.5309V47.6143H6.32364V49.0895H4.08007V56.2121H2.46655V49.0895H0.853027V47.6143H2.46655V46.4772C2.46655 44.7253 3.71127 43.5805 5.51688 43.5805C6.0624 43.5882 6.44657 43.6573 6.81538 43.811ZM15.6052 51.917C15.6052 54.5294 13.7612 56.4964 11.1873 56.4964C8.61331 56.4964 6.76928 54.5294 6.76928 51.917C6.76928 49.3047 8.61331 47.3377 11.1873 47.3377C13.7612 47.3377 15.6052 49.3047 15.6052 51.917ZM13.9917 51.917C13.9917 49.9501 12.6241 48.8129 11.1873 48.8129C9.75045 48.8129 8.3828 49.9501 8.3828 51.917C8.3828 53.884 9.75045 55.0211 11.1873 55.0211C12.6241 55.0211 13.9917 53.8763 13.9917 51.917ZM16.9037 56.2121V47.622H18.4481V49.0281H18.5173C18.8707 48.0446 20.1154 47.4145 21.0067 47.4145C21.5292 47.4145 21.8826 47.4837 22.213 47.622L21.5983 49.128C21.3678 49.0434 21.0912 49.005 20.7378 49.005C19.6314 49.005 18.5096 49.9347 18.5096 51.5098V56.2121H16.9037ZM28.3137 45.2017V49.1817H33.4692V50.6877H28.3137V54.6677H34.0301V56.2121H26.7001V43.6573H34.0301V45.2017H28.3137ZM37.2034 48.8129H37.2725C37.7259 48.0215 38.8169 47.3377 39.9925 47.3377C42.1823 47.3377 43.2733 48.8283 43.2733 50.9489V56.2121H41.6598V51.1948C41.6598 49.4046 40.7685 48.8129 39.5392 48.8129C38.1331 48.8129 37.2802 50.1422 37.2802 51.4637V56.2121H35.6667V47.622H37.2111V48.8129H37.2034ZM45.6706 53.5997V49.0895H44.1646V47.6143H45.6706V44.9866H47.2841V47.6143H49.3893V49.0895H47.2841V53.4768C47.2841 54.4449 47.6836 54.8828 48.4443 54.8828C48.7439 54.8828 48.9514 54.8444 49.1819 54.7445L49.7428 56.1276C49.374 56.2889 48.9898 56.3581 48.4443 56.3581C46.6387 56.3504 45.6706 55.3515 45.6706 53.5997ZM50.757 56.2121V47.622H52.3014V49.0281H52.3705C52.724 48.0446 53.9687 47.4145 54.86 47.4145C55.3824 47.4145 55.7359 47.4837 56.0663 47.622L55.4516 49.128C55.2211 49.0434 54.9445 49.005 54.591 49.005C53.4846 49.005 52.3628 49.9347 52.3628 51.5098V56.2121H50.757ZM56.1047 51.917C56.1047 49.4814 57.7873 47.3377 60.3152 47.3377C62.8738 47.3377 64.5257 49.1433 64.5257 51.917C64.5257 52.04 64.5104 52.2167 64.5104 52.2167H57.7259C57.8104 54.0377 59.1319 55.0211 60.4612 55.0211C61.4062 55.0211 62.3513 54.637 62.8123 53.5459L64.2491 54.1452C63.742 55.3746 62.4742 56.4964 60.4996 56.4964C57.8565 56.4887 56.1047 54.5064 56.1047 51.917ZM60.2768 48.8129C59.0858 48.8129 58.1408 49.6197 57.8181 50.8798H62.7969C62.7508 50.1268 62.1208 48.8129 60.2768 48.8129ZM67.3609 55.0211H67.2918L67.3609 56.2121V60H65.7474V47.622H67.2918V48.8129H67.3609C67.8527 48.0215 68.9207 47.3377 70.2883 47.3377C72.4627 47.3377 74.3759 49.2816 74.3759 51.917C74.3759 54.5525 72.4627 56.4964 70.2883 56.4964C68.9207 56.4887 67.8527 55.8049 67.3609 55.0211ZM72.7624 51.917C72.7624 49.9885 71.4639 48.8129 70.0271 48.8129C68.5903 48.8129 67.2918 49.9501 67.2918 51.917C67.2918 53.884 68.5903 55.0211 70.0271 55.0211C71.4639 55.0211 72.7624 53.8456 72.7624 51.917ZM75.5899 56.2121V47.622H77.1343V49.0281H77.2034C77.5568 48.0446 78.8016 47.4145 79.6928 47.4145C80.2153 47.4145 80.5687 47.4837 80.8991 47.622L80.2845 49.128C80.054 49.0434 79.7774 49.005 79.4239 49.005C78.3175 49.005 77.1957 49.9347 77.1957 51.5098V56.2121H75.5899ZM80.9376 51.917C80.9376 49.4814 82.6202 47.3377 85.1481 47.3377C87.7067 47.3377 89.3586 49.1433 89.3586 51.917C89.3586 52.04 89.3432 52.2167 89.3432 52.2167H82.5588C82.6433 54.0377 83.9648 55.0211 85.2941 55.0211C86.2391 55.0211 87.1842 54.637 87.6452 53.5459L89.082 54.1452C88.5749 55.3746 87.3148 56.4964 85.3325 56.4964C82.6894 56.4887 80.9376 54.5064 80.9376 51.917ZM85.1097 48.8129C83.9187 48.8129 82.9737 49.6197 82.651 50.8798H87.6298C87.5837 50.1268 86.946 48.8129 85.1097 48.8129ZM92.1938 48.8129H92.2629C92.7163 48.0215 93.8073 47.3377 94.9829 47.3377C97.1727 47.3377 98.2637 48.8283 98.2637 50.9489V56.2121H96.6502V51.1948C96.6502 49.4046 95.7589 48.8129 94.5296 48.8129C93.1235 48.8129 92.2706 50.1422 92.2706 51.4637V56.2121H90.6571V47.622H92.2015L92.1938 48.8129ZM99.4854 51.917C99.4854 49.4814 101.168 47.3377 103.696 47.3377C106.255 47.3377 107.906 49.1433 107.906 51.917C107.906 52.04 107.891 52.2167 107.891 52.2167H101.107C101.191 54.0377 102.513 55.0211 103.842 55.0211C104.787 55.0211 105.732 54.637 106.193 53.5459L107.63 54.1452C107.123 55.3746 105.855 56.4964 103.88 56.4964C101.237 56.4887 99.4854 54.5064 99.4854 51.917ZM103.658 48.8129C102.467 48.8129 101.521 49.6197 101.199 50.8798H106.178C106.132 50.1268 105.502 48.8129 103.658 48.8129ZM115.198 56.2121V55.0211H115.129C114.652 55.8125 113.585 56.4964 112.409 56.4964C110.196 56.4964 109.128 55.0058 109.128 52.8852V47.622H110.742V52.6162C110.742 54.4065 111.633 55.0211 112.862 55.0211C114.268 55.0211 115.121 53.6689 115.121 52.355V47.622H116.735V56.2121H115.198ZM118.525 56.2121V47.622H120.069V49.0281H120.138C120.492 48.0446 121.737 47.4145 122.628 47.4145C123.15 47.4145 123.504 47.4837 123.834 47.622L123.22 49.128C122.989 49.0434 122.712 49.005 122.359 49.005C121.253 49.005 120.131 49.9347 120.131 51.5098V56.2121H118.525ZM124.065 54.0377L125.502 53.4384C125.955 54.5217 126.8 55.0519 127.837 55.0519C128.836 55.0519 129.558 54.5601 129.558 53.8456C129.558 53.4076 129.297 52.9313 128.383 52.7084L126.646 52.2858C125.855 52.0938 124.349 51.4099 124.349 49.904C124.349 48.3442 125.963 47.3454 127.753 47.3454C129.243 47.3454 130.542 48.0292 131.064 49.3431L129.658 49.9193C129.328 49.1126 128.536 48.7822 127.691 48.7822C126.777 48.7822 125.993 49.1817 125.993 49.8886C125.993 50.4341 126.447 50.7338 127.13 50.8875L128.828 51.287C130.527 51.6865 131.195 52.7392 131.195 53.7918C131.195 55.3208 129.827 56.4887 127.814 56.4887C125.755 56.4887 124.58 55.267 124.065 54.0377Z" fill="white"/>
<path d="M104.956 2.08992H109.658V33.5536H104.956V2.08992ZM45.0635 12.8006C39.1396 12.8006 34.3144 17.3031 34.3144 23.5037C34.3144 29.6658 39.1396 34.2067 45.0635 34.2067C50.9875 34.2067 55.8127 29.6658 55.8127 23.5037C55.8127 17.2954 50.9875 12.8006 45.0635 12.8006ZM45.0635 29.9885C41.8211 29.9885 39.0244 27.3147 39.0244 23.5037C39.0244 19.6543 41.8211 17.0188 45.0635 17.0188C48.306 17.0188 51.1027 19.6543 51.1027 23.5037C51.1027 27.3147 48.306 29.9885 45.0635 29.9885ZM17.165 16.0815V20.6224H28.0293C27.7066 23.1733 26.8538 25.0404 25.5553 26.3389C23.9725 27.9216 21.4984 29.6658 17.165 29.6658C10.4727 29.6658 5.24794 24.272 5.24794 17.5797C5.24794 10.8875 10.4727 5.50136 17.165 5.50136C20.7762 5.50136 23.4116 6.9228 25.3555 8.74378L28.5595 5.53978C25.8396 2.94278 22.236 0.960449 17.165 0.960449C7.99861 0.960449 0.299805 8.42107 0.299805 17.5874C0.299805 26.7538 8.0063 34.2144 17.165 34.2144C22.1131 34.2144 25.8396 32.5932 28.7593 29.5505C31.7635 26.5463 32.6932 22.3358 32.6932 18.9243C32.6932 17.8717 32.6087 16.8959 32.4473 16.0891H17.165V16.0815ZM122.551 29.9885C120.162 29.9885 118.456 28.8974 117.357 26.7461L131.671 20.8221L131.187 19.6082C130.296 17.2186 127.576 12.7929 122.021 12.7929C116.504 12.7929 111.925 17.1341 111.925 23.496C111.925 29.4968 116.466 34.199 122.551 34.199C127.461 34.199 130.296 31.1948 131.472 29.4583L127.822 27.0227C126.608 28.8129 124.948 29.9885 122.551 29.9885ZM122.19 16.9343C124.057 16.9343 125.64 17.864 126.162 19.2086L116.596 23.181C116.473 19.0396 119.793 16.9343 122.19 16.9343ZM97.2495 15.1902H97.0881C96.0355 13.9301 94.0071 12.8006 91.4485 12.8006C86.0931 12.8006 81.1911 17.5029 81.1911 23.5498C81.1911 29.5505 86.1008 34.2144 91.4485 34.2144C93.9994 34.2144 96.0278 33.0772 97.0881 31.7787H97.2495V33.3231C97.2495 37.4184 95.0597 39.6082 91.533 39.6082C88.6517 39.6082 86.8692 37.5413 86.1392 35.7972L82.044 37.5029C83.2195 40.3381 86.339 43.8264 91.533 43.8264C97.0497 43.8264 101.714 40.584 101.714 32.6777V13.446H97.2495V15.1902ZM91.8557 29.9885C88.6133 29.9885 85.8934 27.2686 85.8934 23.5421C85.8934 19.7695 88.6133 17.0112 91.8557 17.0112C95.0597 17.0112 97.5722 19.7695 97.5722 23.5421C97.5722 27.2762 95.0597 29.9885 91.8557 29.9885ZM68.498 12.8006C62.5741 12.8006 57.7489 17.3031 57.7489 23.5037C57.7489 29.6658 62.5741 34.2067 68.498 34.2067C74.422 34.2067 79.2472 29.6658 79.2472 23.5037C79.2472 17.2954 74.422 12.8006 68.498 12.8006ZM68.498 29.9885C65.2556 29.9885 62.4589 27.3147 62.4589 23.5037C62.4589 19.6543 65.2556 17.0188 68.498 17.0188C71.7405 17.0188 74.5372 19.6543 74.5372 23.5037C74.5449 27.3147 71.7481 29.9885 68.498 29.9885Z" fill="white"/>
</g>
<defs>
<clipPath id="clip0_1_450">
<rect width="131.694" height="60" fill="white"/>
</clipPath>
</defs>
</svg>
