<svg width="227" height="60" viewBox="0 0 227 60" fill="none" xmlns="http://www.w3.org/2000/svg">
<g style="mix-blend-mode:luminosity" opacity="0.8" clip-path="url(#clip0_1_427)">
<path d="M166.931 4.29832C166.931 1.9258 168.905 0.000244141 171.338 0.000244141H222.147C224.581 0.000244141 226.554 1.9258 226.554 4.29832V55.703C226.554 58.0763 224.581 60.0002 222.147 60.0002H171.338C168.905 60.0002 166.931 58.0763 166.931 55.7037V4.29832Z" fill="#808080"/>
<path d="M0.0310059 50.2592H24.913V42.0895H9.03714V10.9241H0.0310059V50.2592ZM37.5105 50.2592V23.166H28.5052V50.2592H37.5105ZM33.0087 19.4675C36.1484 19.4675 38.1031 17.387 38.1031 14.7854C38.0449 12.1273 36.1484 10.1057 33.0685 10.1057C29.9877 10.1057 27.9732 12.1281 27.9732 14.7854C27.9732 17.387 29.9279 19.4675 32.9496 19.4675H33.0087ZM41.6914 50.2592H50.6967V35.1285C50.6967 34.3188 50.755 33.5091 50.9934 32.9323C51.6434 31.3144 53.1251 29.6383 55.6133 29.6383C58.8727 29.6383 60.1766 32.1233 60.1766 35.7636V50.2584H69.1804V34.7241C69.1804 26.4017 64.7375 22.5294 58.8121 22.5294C53.9545 22.5294 51.8212 25.245 50.6361 27.095H50.6967V23.166H41.6914C41.8102 25.7085 41.6914 50.2592 41.6914 50.2592ZM81.885 10.9241H72.8796V50.2592H81.885V41.4749L84.1355 38.6413L91.1862 50.2592H102.264L90.4166 33.4406L100.783 21.999H89.9429C89.9429 21.999 82.5373 32.2351 81.885 33.4501V10.9241Z" fill="white"/>
<path d="M126.346 38.9576C126.465 38.262 126.642 36.9274 126.642 35.4181C126.642 28.4146 123.087 21.3041 113.727 21.3041C103.714 21.3041 99.0929 29.2228 99.0929 36.4049C99.0929 45.2875 104.722 50.8344 114.556 50.8344C118.467 50.8344 122.079 50.2583 125.043 49.0441L123.858 43.0967C121.428 43.9025 118.939 44.3062 115.859 44.3062C111.653 44.3062 107.981 42.5789 107.684 38.8994L126.346 38.956V38.9576ZM107.625 32.8654C107.862 30.5534 109.404 27.1422 113.254 27.1422C117.341 27.1422 118.29 30.784 118.29 32.8654H107.625ZM148.87 10.9241V24.5407H148.751C147.447 22.6348 144.722 21.3632 141.111 21.3632C134.178 21.3632 128.076 26.9108 128.134 36.3883C128.134 45.1734 133.645 50.8949 140.516 50.8949C144.249 50.8949 147.803 49.2755 149.582 46.1546H149.759L150.115 50.2591H158.112C157.994 48.3517 157.875 45.0577 157.875 41.8211V10.9233H148.869L148.87 10.9241ZM148.87 37.7182C148.87 38.4107 148.811 39.1055 148.692 39.6815C148.16 42.1682 146.027 43.9001 143.42 43.9001C139.689 43.9001 137.259 40.8957 137.259 36.157C137.259 31.7078 139.334 28.1243 143.48 28.1243C146.264 28.1243 148.219 30.0309 148.752 32.3995C148.87 32.9212 148.87 33.4996 148.87 34.019V37.7182Z" fill="white"/>
<path d="M185.005 50.2261V23.1329H176V50.2261H185.005ZM180.504 19.4345C183.644 19.4345 185.598 17.3539 185.598 14.7539C185.539 12.095 183.644 10.0726 180.564 10.0726C177.481 10.0726 175.469 12.095 175.469 14.7539C175.469 17.3539 177.422 19.4345 180.445 19.4345H180.503H180.504ZM189.989 50.2261H198.994V35.0978C198.994 34.2889 199.053 33.4784 199.291 32.9008C199.941 31.2821 201.423 29.6068 203.911 29.6068C207.169 29.6068 208.473 32.091 208.473 35.7336V50.2261H217.477V34.6918C217.477 26.3702 213.035 22.4979 207.111 22.4979C202.253 22.4979 200.12 25.2127 198.935 27.0619H198.995V23.1337H189.99C190.107 25.6754 189.989 50.2261 189.989 50.2261Z" fill="white"/>
</g>
<defs>
<clipPath id="clip0_1_427">
<rect width="226.586" height="60" fill="white"/>
</clipPath>
</defs>
</svg>
