<svg width="136" height="42" viewBox="0 0 136 42" fill="none" xmlns="http://www.w3.org/2000/svg">
<mask id="mask0_1_661" style="mask-type:alpha" maskUnits="userSpaceOnUse" x="0" y="0" width="33" height="30">
<path d="M9.33085 12.3306L9.09643 13.1052C8.81512 14.0494 7.9712 14.703 6.98663 14.703C5.50978 14.703 4.45488 13.2263 4.87684 11.7738L5.11126 10.9991C5.39257 10.055 6.23648 9.40137 7.22105 9.40137C8.69791 9.40137 9.7528 10.8781 9.33085 12.3306Z" fill="black"/>
<path d="M32.6555 12.0645C32.6555 18.2134 27.8264 23.2003 21.8721 23.2003H13.6908L12.4484 28.7682C12.3312 29.325 11.8389 29.7123 11.2997 29.7123H10.7371C8.86173 29.7123 7.4552 27.8967 7.87716 26.0085L8.5101 23.2003L9.35401 19.3754C9.54155 18.4797 10.3151 17.8503 11.1825 17.8503H18.684C19.3638 17.8503 19.9733 17.4145 20.1843 16.7609C20.2312 16.5914 20.2546 16.422 20.2546 16.2767C20.2546 15.4295 19.5982 14.7032 18.7309 14.7032H13.597C12.3546 14.7032 11.3466 13.7833 11.1122 12.6455C11.0418 12.2824 11.0184 11.895 11.1122 11.5077V11.4835V11.4351C11.3935 10.2247 12.4249 9.37739 13.6205 9.37739H20.5828C21.2392 9.37739 21.8721 8.96585 22.0831 8.31223C22.13 8.14277 22.1769 7.97331 22.1769 7.77964C22.1769 6.93236 21.5205 6.20611 20.6531 6.20611H2.57923C0.844515 6.25453 -0.397919 4.51153 0.117808 2.81695C0.445998 1.67917 1.45401 0.928711 2.57923 0.928711H21.8721C27.8264 0.928711 32.6555 5.91561 32.6555 12.0645Z" fill="black"/>
</mask>
<g mask="url(#mask0_1_661)">
<path d="M-5.80664 39.3066L-5.80664 0.128712L36.0027 0.12871L36.0027 39.3066L-5.80664 39.3066Z" fill="url(#paint0_radial_1_661)"/>
</g>
<path d="M48.0275 18.1366V29.7121H43.5406V2.71814C43.5406 1.4528 44.5479 0.421778 45.7841 0.421778C47.0202 0.421778 48.0275 1.4528 48.0275 2.71814V3.09306C49.401 1.21848 51.6902 0 54.3915 0C59.3362 0 64.0519 3.79603 64.0519 10.4508C64.0519 17.0587 59.153 20.8547 54.4373 20.8547C51.736 20.9016 49.401 19.9174 48.0275 18.1366ZM59.6109 10.4039C59.6109 6.93595 57.047 4.21781 53.7047 4.21781C50.2709 4.21781 47.7986 7.02968 47.8901 10.5445C47.9817 13.9656 50.7288 16.8244 54.071 16.6369C57.1843 16.4495 59.6109 13.7782 59.6109 10.4039Z" fill="white"/>
<path d="M65.9293 2.53073V20.4798H70.5077V2.53073C70.5077 1.26538 69.5005 0.1875 68.2185 0.1875C66.9366 0.1875 65.9293 1.26538 65.9293 2.53073Z" fill="white"/>
<path d="M72.4762 10.4977C72.4762 4.63959 76.9173 0 82.6403 0C88.4548 0 92.7128 4.40527 92.7128 10.3102V12.0442H76.7799C77.4209 14.9029 79.5727 16.7775 82.8234 16.7775C85.3873 16.7775 87.3102 15.4184 88.2717 13.2627L91.9802 15.4653C90.2862 18.7458 87.2645 20.9016 82.8234 20.9016C76.6425 20.9016 72.4762 16.3089 72.4762 10.4977ZM77.0088 8.20129H88.1344C87.4476 5.48315 85.4331 4.07721 82.6403 4.07721C79.939 4.07721 77.8329 5.76434 77.0088 8.20129Z" fill="white"/>
<path d="M94.7275 0.421786H99.2144V2.90561C100.542 1.17162 102.511 0.046875 105.075 0.046875C110.019 0.046875 112.858 3.18679 112.858 8.62308V18.1834C112.858 19.4957 111.851 20.5267 110.569 20.5267C109.287 20.5267 108.28 19.4957 108.28 18.1834V9.09172C108.28 5.9518 106.815 4.03036 103.839 4.03036C101.275 4.03036 99.2602 5.9518 99.2602 9.46664V20.4798H94.7275V0.421786Z" fill="white"/>
<path d="M114.827 10.4977C114.827 3.8429 119.588 0.046875 124.533 0.046875C127.097 0.046875 129.386 1.12476 130.851 2.85875V2.76501C130.851 1.49967 131.858 0.468653 133.095 0.468653C134.331 0.468653 135.338 1.49967 135.338 2.76501V20.5267H130.805V17.9023C129.386 19.7768 127.005 20.9016 124.441 20.9016C119.771 20.9016 114.827 17.0587 114.827 10.4977ZM131.08 10.8257C131.309 7.21715 128.745 4.26468 125.22 4.26468C121.877 4.26468 119.268 6.98282 119.268 10.4508C119.268 13.8719 121.786 16.5901 125.037 16.6838C128.287 16.7306 130.897 14.1062 131.08 10.8257Z" fill="white"/>
<path d="M86.4998 27.3628V28.2057H83.8879V30.0635H85.9243V30.9064H83.8879V33.6615H82.8785V27.3628H86.4998Z" fill="white"/>
<path d="M90.9742 27.3628V33.6615H89.9649V27.3628H90.9742Z" fill="white"/>
<path d="M99.8846 33.6615H98.8753L95.8384 28.9579V33.6615H94.8291V27.3538H95.8384L98.8753 32.0483V27.3538H99.8846V33.6615Z" fill="white"/>
<path d="M107.45 32.3746H104.873L104.43 33.6615H103.377L105.581 27.3538H106.75L108.955 33.6615H107.892L107.45 32.3746ZM107.166 31.5317L106.166 28.6044L105.156 31.5317H107.166Z" fill="white"/>
<path d="M117.498 33.6615H116.489L113.452 28.9579V33.6615H112.443V27.3538H113.452L116.489 32.0483V27.3538H117.498V33.6615Z" fill="white"/>
<path d="M121.017 30.4986C121.017 29.8823 121.156 29.3294 121.433 28.8401C121.717 28.3507 122.097 27.97 122.575 27.6981C123.059 27.4202 123.588 27.2812 124.16 27.2812C124.815 27.2812 125.397 27.4474 125.905 27.7797C126.418 28.106 126.79 28.5712 127.02 29.1754H125.807C125.648 28.8431 125.426 28.5954 125.143 28.4322C124.86 28.2691 124.532 28.1875 124.16 28.1875C123.753 28.1875 123.39 28.2812 123.071 28.4685C122.753 28.6558 122.502 28.9246 122.319 29.2751C122.142 29.6255 122.053 30.0333 122.053 30.4986C122.053 30.9638 122.142 31.3716 122.319 31.722C122.502 32.0725 122.753 32.3443 123.071 32.5377C123.39 32.725 123.753 32.8186 124.16 32.8186C124.532 32.8186 124.86 32.7371 125.143 32.5739C125.426 32.4108 125.648 32.1631 125.807 31.8308H127.02C126.79 32.435 126.418 32.9002 125.905 33.2265C125.397 33.5527 124.815 33.7158 124.16 33.7158C123.582 33.7158 123.054 33.5799 122.575 33.308C122.097 33.0301 121.717 32.6464 121.433 32.157C121.156 31.6677 121.017 31.1148 121.017 30.4986Z" fill="white"/>
<path d="M131.741 28.1966V30.0454H133.865V30.8883H131.741V32.8186H134.131V33.6615H130.731V27.3538H134.131V28.1966H131.741Z" fill="white"/>
<defs>
<radialGradient id="paint0_radial_1_661" cx="0" cy="0" r="1" gradientUnits="userSpaceOnUse" gradientTransform="translate(1.38068 21.8248) rotate(-36.3081) scale(29.6954 27.2187)">
<stop stop-color="#85EAFF"/>
<stop offset="0.706211" stop-color="#DADADA"/>
<stop offset="1" stop-color="#FFCB80"/>
</radialGradient>
</defs>
</svg>
