<svg width="37" height="37" viewBox="0 0 37 37" fill="none" xmlns="http://www.w3.org/2000/svg">
<g clip-path="url(#clip0_1_624)">
<path opacity="0.6" d="M18.4082 36.0339C14.9223 36.0339 11.5146 35.0001 8.6161 33.0634C5.71754 31.1267 3.45838 28.3739 2.12432 25.1532C0.790258 21.9325 0.441207 18.3885 1.12131 14.9694C1.8014 11.5503 3.48011 8.40967 5.94513 5.94464C8.41016 3.47962 11.5508 1.80092 14.9699 1.12082C18.389 0.440719 21.9329 0.78977 25.1537 2.12383C28.3744 3.45789 31.1271 5.71705 33.0639 8.61561C35.0006 11.5141 36.0343 14.9218 36.0344 18.4077C36.0288 23.0808 34.17 27.5608 30.8656 30.8651C27.5613 34.1695 23.0813 36.0283 18.4082 36.0339Z" stroke="white" stroke-width="0.476375"/>
<path d="M18.4091 30.8467C15.9511 30.8467 13.5483 30.1178 11.5046 28.7522C9.46085 27.3867 7.86796 25.4457 6.92733 23.1748C5.98671 20.904 5.7406 18.4052 6.22012 15.9944C6.69965 13.5837 7.88328 11.3693 9.62133 9.63122C11.3594 7.89317 13.5738 6.70954 15.9845 6.23001C18.3953 5.75049 20.8941 5.9966 23.165 6.93722C25.4358 7.87785 27.3768 9.47074 28.7423 11.5145C30.1079 13.5582 30.8368 15.961 30.8368 18.419C30.8328 21.7138 29.5222 24.8725 27.1924 27.2023C24.8626 29.5321 21.7039 30.8427 18.4091 30.8467Z" fill="#BFCEF7"/>
<path d="M18.4091 30.9551C15.9511 30.9551 13.5483 30.2262 11.5046 28.8606C9.46085 27.4951 7.86796 25.5541 6.92733 23.2832C5.98671 21.0124 5.7406 18.5136 6.22012 16.1028C6.69965 13.6921 7.88328 11.4777 9.62133 9.73961C11.3594 8.00156 13.5738 6.81794 15.9845 6.33841C18.3953 5.85888 20.8941 6.10499 23.165 7.04562C25.4358 7.98625 27.3768 9.57914 28.7423 11.6229C30.1079 13.6666 30.8368 16.0694 30.8368 18.5273C30.8328 21.8222 29.5222 24.9809 27.1924 27.3107C24.8626 29.6405 21.7039 30.9511 18.4091 30.9551Z" fill="#BFCEF7"/>
<path d="M15.9213 24.4955C15.2625 24.4929 14.6314 24.2298 14.1658 23.7637C13.7002 23.2976 13.4378 22.6663 13.4358 22.0075V14.8292C13.4358 14.3929 13.5507 13.9643 13.7688 13.5865C13.987 13.2086 14.3007 12.8949 14.6786 12.6767C15.0564 12.4586 15.4851 12.3437 15.9214 12.3438C16.3577 12.3438 16.7863 12.4586 17.1641 12.6767L23.378 16.2659C23.7558 16.484 24.0695 16.7978 24.2877 17.1756C24.5058 17.5535 24.6206 17.9821 24.6206 18.4184C24.6206 18.8546 24.5058 19.2832 24.2877 19.6611C24.0695 20.0389 23.7558 20.3527 23.378 20.5708L17.1641 24.16C16.7866 24.3792 16.3579 24.495 15.9213 24.4955Z" fill="#B933BC"/>
</g>
<defs>
<clipPath id="clip0_1_624">
<rect width="35.7282" height="35.7282" fill="white" transform="translate(0.543701 0.543945)"/>
</clipPath>
</defs>
</svg>
