<svg width="33" height="33" viewBox="0 0 33 33" fill="none" xmlns="http://www.w3.org/2000/svg">
<path d="M31.4112 16.4331L24.1868 20.0453L24.011 20.1307L23.0765 20.5979L3.14162 30.5654L1.2677 31.5049V1.36133L3.14162 2.3008L23.0765 12.2632L24.011 12.7305L31.4112 16.4331Z" fill="white"/>
<path d="M26.8897 18.6938L24.1868 20.0453L24.011 20.1307L23.0765 20.5979L3.14162 30.5653L1.2677 31.5048V5.88281L12.2399 11.3689L15.9878 13.2429L19.7306 15.1168L20.7053 15.6192L26.8897 18.6938Z" fill="white"/>
<path d="M26.8897 18.6938L24.1868 20.0453C21.7726 21.2528 19.0897 21.8231 16.393 21.7021C13.6963 21.581 11.0753 20.7726 8.77895 19.3536C6.48258 17.9346 4.58708 15.9522 3.27246 13.5945C1.95784 11.2368 1.26774 8.58223 1.2677 5.88281L26.8897 18.6938Z" fill="white"/>
<path d="M19.7306 16.4331L20.7053 15.6041L23.8754 12.9164C23.9282 12.8735 23.9696 12.8183 23.9959 12.7556L23.0615 12.2884L19.7156 15.1419L18.9419 15.8001L15.9727 13.2881L3.15167 2.30583L1.2677 1.36133V2.01946L12.24 11.369L18.1833 16.4331L12.7022 21.1003L1.2677 30.8467V31.5049L3.1366 30.5704L13.9029 21.4018L18.9569 17.0912L23.0364 20.5678L23.0766 20.603L24.011 20.1357C23.9815 20.0764 23.9405 20.0234 23.8904 19.98L19.7306 16.4331Z" fill="black"/>
</svg>
