<svg width="26" height="25" viewBox="0 0 26 25" fill="none" xmlns="http://www.w3.org/2000/svg">
<path d="M13.4091 24.9551C10.9511 24.9551 8.54831 24.2262 6.50458 22.8606C4.46085 21.4951 2.86796 19.5541 1.92733 17.2832C0.986708 15.0124 0.740597 12.5136 1.22012 10.1028C1.69965 7.69207 2.88328 5.47766 4.62133 3.73961C6.35938 2.00156 8.57379 0.817937 10.9845 0.33841C13.3953 -0.141116 15.8941 0.104994 18.165 1.04562C20.4358 1.98625 22.3768 3.57914 23.7423 5.62287C25.1079 7.6666 25.8368 10.0694 25.8368 12.5273C25.8328 15.8222 24.5222 18.9809 22.1924 21.3107C19.8626 23.6405 16.7039 24.9511 13.4091 24.9551Z" fill="#BFCEF7"/>
<path d="M10.9213 18.4955C10.2625 18.4929 9.63144 18.2298 9.16581 17.7637C8.70017 17.2976 8.43775 16.6663 8.43579 16.0075V8.82923C8.4358 8.39293 8.55066 7.96432 8.76881 7.58648C8.98697 7.20864 9.30074 6.89488 9.67859 6.67673C10.0564 6.45859 10.4851 6.34375 10.9214 6.34375C11.3577 6.34375 11.7863 6.4586 12.1641 6.67675L18.378 10.2659C18.7558 10.484 19.0695 10.7978 19.2877 11.1756C19.5058 11.5535 19.6206 11.9821 19.6206 12.4184C19.6206 12.8546 19.5058 13.2832 19.2877 13.6611C19.0695 14.0389 18.7558 14.3527 18.378 14.5708L12.1641 18.16C11.7866 18.3792 11.3579 18.495 10.9213 18.4955Z" fill="#B933BC"/>
</svg>
