<svg width="78" height="78" viewBox="0 0 78 78" fill="none" xmlns="http://www.w3.org/2000/svg">
<g clip-path="url(#clip0_1_612)">
<path opacity="0.6" d="M39.2491 77.0449C31.7248 77.0448 24.3695 74.8135 18.1132 70.6332C11.8568 66.4528 6.98055 60.5111 4.10103 53.5593C1.22152 46.6076 0.468108 38.958 1.93607 31.5781C3.40403 24.1981 7.02744 17.4192 12.3481 12.0986C17.6687 6.77793 24.4477 3.15452 31.8276 1.68656C39.2076 0.218596 46.8571 0.972008 53.8088 3.85152C60.7606 6.73103 66.7023 11.6073 70.8828 17.8637C75.063 24.12 77.2943 31.4753 77.2944 38.9996C77.2824 49.0862 73.2701 58.7561 66.1379 65.8884C59.0056 73.0206 49.3357 77.0329 39.2491 77.0449Z" stroke="white" stroke-width="1.02824"/>
<path d="M39.251 65.8467C33.9456 65.8467 28.7593 64.2735 24.348 61.3259C19.9367 58.3784 16.4985 54.1889 14.4682 49.2874C12.4379 44.3858 11.9067 38.9922 12.9417 33.7888C13.9767 28.5853 16.5316 23.8056 20.2831 20.0541C24.0346 16.3026 28.8143 13.7477 34.0178 12.7127C39.2212 11.6777 44.6148 12.2089 49.5164 14.2392C54.4179 16.2695 58.6074 19.7077 61.5549 24.119C64.5025 28.5303 66.0757 33.7166 66.0757 39.022C66.0672 46.1337 63.2383 52.9518 58.2095 57.9805C53.1808 63.0093 46.3627 65.8382 39.251 65.8467Z" fill="white"/>
<path d="M39.251 66.0811C33.9456 66.0811 28.7593 64.5078 24.348 61.5603C19.9367 58.6128 16.4985 54.4233 14.4682 49.5217C12.4379 44.6202 11.9067 39.2266 12.9417 34.0231C13.9767 28.8196 16.5316 24.0399 20.2831 20.2884C24.0346 16.5369 28.8143 13.9821 34.0178 12.9471C39.2212 11.912 44.6148 12.4433 49.5164 14.4736C54.4179 16.5039 58.6074 19.9421 61.5549 24.3534C64.5025 28.7647 66.0757 33.9509 66.0757 39.2564C66.0672 46.3681 63.2383 53.1861 58.2095 58.2149C53.1808 63.2437 46.3627 66.0726 39.251 66.0811Z" fill="white"/>
<path d="M33.8813 52.1402C32.4592 52.1345 31.0971 51.5668 30.0921 50.5607C29.087 49.5546 28.5206 48.192 28.5164 46.7699V31.2759C28.5164 30.3342 28.7643 29.4091 29.2352 28.5935C29.7061 27.778 30.3833 27.1007 31.1989 26.6299C32.0145 26.159 32.9396 25.9111 33.8813 25.9111C34.8231 25.9111 35.7482 26.159 36.5638 26.6299L49.9761 34.3769C50.7916 34.8478 51.4688 35.525 51.9397 36.3406C52.4105 37.1561 52.6584 38.0812 52.6584 39.0229C52.6584 39.9646 52.4105 40.8897 51.9397 41.7053C51.4688 42.5208 50.7916 43.1981 49.9761 43.669L36.5638 51.4159C35.7489 51.8892 34.8236 52.139 33.8813 52.1402Z" fill="#B933BC"/>
</g>
<defs>
<clipPath id="clip0_1_612">
<rect width="77.1176" height="77.1176" fill="white" transform="translate(0.691162 0.441406)"/>
</clipPath>
</defs>
</svg>
