<svg width="186" height="60" viewBox="0 0 186 60" fill="none" xmlns="http://www.w3.org/2000/svg">
<g style="mix-blend-mode:luminosity" opacity="0.8">
<path d="M30.1185 59.8444C46.5766 59.8444 59.9185 46.5025 59.9185 30.0444C59.9185 13.5864 46.5766 0.244446 30.1185 0.244446C13.6604 0.244446 0.318481 13.5864 0.318481 30.0444C0.318481 46.5025 13.6604 59.8444 30.1185 59.8444Z" fill="#808080"/>
<path d="M49.9925 30.0444C49.9037 27.6444 47.8888 25.7704 45.4814 25.8518C44.4148 25.8889 43.3999 26.3259 42.6296 27.0592C39.237 24.7481 35.2518 23.4815 31.1555 23.3926L33.0888 14.0963L39.4666 15.437C39.6444 17.0741 41.1111 18.2592 42.7481 18.0815C44.3851 17.9037 45.5703 16.437 45.3925 14.8C45.2148 13.1629 43.7481 11.9778 42.1111 12.1555C41.1703 12.2518 40.3259 12.8 39.8592 13.6148L32.5555 12.1555C32.0592 12.0444 31.5629 12.3555 31.4518 12.8592C31.4518 12.8667 31.4518 12.8667 31.4518 12.8741L29.2518 23.2148C25.1037 23.2815 21.0666 24.5555 17.6296 26.8815C15.8814 25.237 13.1259 25.3185 11.4814 27.0741C9.83699 28.8222 9.91847 31.5778 11.674 33.2222C12.0148 33.5407 12.4074 33.8148 12.8444 34.0074C12.8148 34.4444 12.8148 34.8815 12.8444 35.3185C12.8444 41.9926 20.6222 47.4222 30.2148 47.4222C39.8074 47.4222 47.5851 42 47.5851 35.3185C47.6148 34.8815 47.6148 34.4444 47.5851 34.0074C49.0814 33.2592 50.0222 31.7185 49.9925 30.0444ZM20.1925 33.0296C20.1925 31.3852 21.5333 30.0444 23.1777 30.0444C24.8222 30.0444 26.1629 31.3852 26.1629 33.0296C26.1629 34.6741 24.8222 36.0148 23.1777 36.0148C21.5259 36 20.1925 34.6741 20.1925 33.0296ZM37.5037 41.2222C35.3851 42.8148 32.7925 43.6296 30.1407 43.5185C27.4888 43.6296 24.8962 42.8148 22.7777 41.2222C22.4962 40.8815 22.5481 40.3704 22.8888 40.0889C23.1851 39.8444 23.6074 39.8444 23.9111 40.0889C25.7037 41.4 27.8888 42.0667 30.1111 41.9629C32.3333 42.0815 34.5259 41.4444 36.3407 40.1481C36.6666 39.8296 37.1999 39.837 37.5185 40.1629C37.837 40.4889 37.8296 41.0222 37.5037 41.3407V41.2222ZM36.9703 36.1185C35.3259 36.1185 33.9851 34.7778 33.9851 33.1333C33.9851 31.4889 35.3259 30.1481 36.9703 30.1481C38.6148 30.1481 39.9555 31.4889 39.9555 33.1333C40.0222 34.7778 38.7407 36.1629 37.0962 36.2296C37.0444 36.2296 36.9999 36.2296 36.9481 36.2296L36.9703 36.1185Z" fill="white"/>
<path d="M166.578 20.9556C168.82 20.9556 170.637 19.1382 170.637 16.8963C170.637 14.6544 168.82 12.837 166.578 12.837C164.336 12.837 162.519 14.6544 162.519 16.8963C162.519 19.1382 164.336 20.9556 166.578 20.9556Z" fill="#808080"/>
<path d="M109.052 34.1704C110.622 34.2815 111.985 33.0963 112.104 31.5185C112.111 31.4296 112.111 31.3259 112.111 31.2296C112.089 30.6815 112.022 30.1259 111.911 29.5852C110.948 24.4444 106.556 20.6593 101.333 20.4518C95.3852 20.4518 90.4148 25.9185 90.4148 32.6296C90.4148 39.3407 95.3037 44.8148 101.326 44.8148C104.519 44.9407 107.615 43.6518 109.763 41.2889C110.644 40.3259 110.57 38.837 109.607 37.9555C109.533 37.8889 109.467 37.8296 109.393 37.7778C108.43 37.1778 107.178 37.3037 106.363 38.0889C105.022 39.4222 103.222 40.1852 101.326 40.2444C98.0519 39.9852 95.4296 37.4222 95.1037 34.1407H108.963L109.052 34.1704ZM101.304 25.037C104.185 25.2296 106.607 27.2889 107.252 30.1111H95.3704C96.0074 27.2815 98.4148 25.2222 101.304 25.037ZM90.6519 22.8148C90.6519 21.6741 89.8074 20.7037 88.6741 20.563C85.6148 20.0518 82.5037 21.1852 80.4963 23.5555V23.2593C80.4963 21.9926 79.4741 20.9704 78.2074 20.9704C76.9408 20.9704 75.9185 21.9926 75.9185 23.2593V42C75.8889 43.2296 76.8296 44.2741 78.0593 44.3778C79.3111 44.4667 80.4074 43.5185 80.4889 42.2667C80.4963 42.1778 80.4963 42.0889 80.4889 42V32.3852C80.2889 28.5481 83.2296 25.2815 87.0667 25.0741C87.4074 25.0518 87.7556 25.0592 88.0963 25.0963H88.5556C89.7407 24.9926 90.6519 24.0074 90.6519 22.8148ZM168.859 25.2741C168.859 24.0074 167.837 22.9852 166.57 22.9852C165.304 22.9852 164.281 24.0074 164.281 25.2741V41.9926C164.281 43.2593 165.304 44.2815 166.57 44.2815C167.837 44.2815 168.859 43.2593 168.859 41.9926V25.2741ZM135.081 12.5704C135.081 11.3111 134.059 10.2889 132.8 10.2889C131.541 10.2889 130.519 11.3111 130.519 12.5704V22.7926C128.978 21.237 126.859 20.3926 124.674 20.4518C118.726 20.4518 113.756 25.9185 113.756 32.6296C113.756 39.3407 118.652 44.8148 124.674 44.8148C126.896 44.8815 129.044 44.0296 130.622 42.4518C130.978 43.6592 132.244 44.3481 133.452 43.9926C134.363 43.7259 135.015 42.9259 135.074 41.9704L135.081 12.5704ZM124.659 40.3037C121.156 40.3037 118.304 36.8963 118.304 32.6815C118.304 28.4667 121.133 25.0592 124.659 25.0592C128.185 25.0592 131.015 28.4667 131.015 32.6815C131.015 36.8963 128.185 40.2667 124.674 40.2667L124.659 40.3037ZM158.948 12.5704C158.948 11.3111 157.926 10.2889 156.667 10.2889C155.407 10.2889 154.385 11.3111 154.385 12.5704V22.7926C152.844 21.237 150.726 20.3926 148.541 20.4518C142.593 20.4518 137.622 25.9185 137.622 32.6296C137.622 39.3407 142.519 44.8148 148.541 44.8148C150.763 44.8815 152.911 44.0296 154.489 42.4518C154.844 43.6592 156.111 44.3481 157.319 43.9926C158.23 43.7259 158.881 42.9259 158.941 41.9704L158.948 12.5704ZM148.533 40.3037C145.03 40.3037 142.178 36.8963 142.178 32.6815C142.178 28.4667 145.007 25.0592 148.533 25.0592C152.059 25.0592 154.889 28.4667 154.889 32.6815C154.889 36.8963 152.059 40.2667 148.548 40.2667L148.533 40.3037ZM180.719 41.9852V25.037H182.696C183.793 25.1037 184.726 24.2667 184.793 23.1778C184.793 23.1407 184.8 23.0963 184.8 23.0518C184.896 21.963 184.089 21 183.007 20.9037C182.948 20.8963 182.881 20.8963 182.822 20.8963H180.726V17.7481C180.741 16.5259 179.807 15.4963 178.585 15.3852C177.333 15.2963 176.244 16.2444 176.156 17.4963C176.148 17.5481 176.148 17.6074 176.148 17.6592V20.9481H174.163C173.067 20.8815 172.133 21.7185 172.067 22.8074C172.067 22.8444 172.059 22.8889 172.059 22.9333C171.963 24.0222 172.77 24.9852 173.852 25.0815C173.911 25.0889 173.978 25.0889 174.037 25.0889H176.015V41.9926C176.015 43.2518 177.037 44.2741 178.296 44.2741C179.556 44.3555 180.63 43.3926 180.711 42.1333C180.719 42.0889 180.719 42.037 180.719 41.9852Z" fill="white"/>
</g>
</svg>
